<?xml version="1.0" encoding="UTF-8" standalone="no"?>
<svg width="76px" height="20px" viewBox="0 0 76 20" version="1.1" xmlns="http://www.w3.org/2000/svg" xmlns:xlink="http://www.w3.org/1999/xlink" xmlns:sketch="http://www.bohemiancoding.com/sketch/ns">
    <!-- Generator: Sketch 3.3.2 (12043) - http://www.bohemiancoding.com/sketch -->
    <title>Path</title>
    <desc>Created with Sketch.</desc>
    <defs></defs>
    <g id="Page-1" stroke="none" stroke-width="1" fill="none" fill-rule="evenodd" sketch:type="MSPage">
        <g id="more-info" sketch:type="MSArtboardGroup" transform="translate(-30.000000, -715.000000)" fill="#333333">
            <g id="Footer" sketch:type="MSLayerGroup" transform="translate(0.000000, 700.000000)">
                <g id="Path" transform="translate(30.000000, 15.000000)" sketch:type="MSShapeGroup">
                    <path d="M58.7,11.4 C58.85,10.8 58.9,10.15 58.9,9.5 C58.9,4.25 54.85,0 49.2,0 C43.55,0 39.45,4.25 39.45,9.5 C39.45,14.75 43.5,19 49.15,19 C49.5,19 49.9,19 50.25,18.95 C49.85,17.75 49.4,16.5 49,15.3 C45.85,15.2 43.65,12.6 43.65,9.55 L43.65,9.5 C43.65,6.35 45.9,3.8 49.15,3.8 C52.4,3.8 54.65,6.4 54.7,9.5 C56,10.1 57.35,10.75 58.7,11.4 Z M33.25,18.65 L37.3,18.65 L37.3,0.3 L33.25,0.3 L33.25,18.65 Z M18.5,18.65 L31.65,18.65 L31.65,15 L22.5,15 L22.5,0.35 L18.45,0.35 L18.45,18.65 L18.5,18.65 Z M9.4,19 C12.95,19 15.05,17.75 16.9,15.75 L14.35,13.15 C12.9,14.45 11.65,15.3 9.55,15.3 C6.4,15.3 4.25,12.7 4.25,9.55 L4.25,9.5 C4.25,6.35 6.5,3.8 9.55,3.8 C11.4,3.8 12.8,4.6 14.25,5.85 L16.8,2.9 C15.1,1.2 13.05,0.05 9.55,0.05 C3.9,0.05 0,4.3 0,9.55 L0,9.6 C-1.42108547e-14,14.8 4,19 9.4,19 Z M52.35,19.4 L54.15,15.7 L58,19.45 C58,19.45 59.3,18.35 59.05,18.05 C57.9,16.75 55.2,14.3 55.2,14.3 L58.4,13.2 L48.55,8.45 L52.35,19.4 Z M60.3,18.65 L75.55,18.65 L75.55,15.15 L65.45,15.15 L75.55,3.4 L75.55,0.35 L60.6,0.35 L60.6,3.9 L70.35,3.9 L60.25,15.65 L60.25,18.65 L60.3,18.65 Z"></path>
                </g>
            </g>
        </g>
    </g>
</svg>