<?xml version="1.0" encoding="UTF-8" standalone="no"?>
<svg width="13px" height="13px" viewBox="0 0 13 13" version="1.1" xmlns="http://www.w3.org/2000/svg" xmlns:xlink="http://www.w3.org/1999/xlink" xmlns:sketch="http://www.bohemiancoding.com/sketch/ns">
    <!-- Generator: Sketch 3.3.2 (12043) - http://www.bohemiancoding.com/sketch -->
    <title>Shape</title>
    <desc>Created with Sketch.</desc>
    <defs></defs>
    <g id="Page-1" stroke="none" stroke-width="1" fill="none" fill-rule="evenodd" sketch:type="MSPage">
        <g id="cookie-traffic---not-enabled" sketch:type="MSArtboardGroup" transform="translate(-291.000000, -719.000000)" fill="#333333">
            <g id="Footer" sketch:type="MSLayerGroup" transform="translate(0.000000, 700.000000)">
                <path d="M304,29.1891892 C304,29.4234234 303.941441,29.5990991 303.824324,29.7162162 L301.95045,31.5900901 C301.891892,31.7072072 301.774775,31.7657658 301.599099,31.8243243 C301.481982,31.8828829 301.364865,31.9414414 301.189189,31.9414414 L301.130631,31.9414414 L300.954955,31.9414414 C300.779279,31.9414414 300.486486,31.9414414 300.135135,31.8243243 C299.725225,31.7657658 299.256757,31.5900901 298.72973,31.3558559 C298.144144,31.1216216 297.5,30.7702703 296.797297,30.3018018 C296.094595,29.8333333 295.333333,29.1891892 294.513514,28.3693694 C293.869369,27.7252252 293.342342,27.1396396 292.932432,26.5540541 C292.522523,25.9684685 292.171171,25.4414414 291.936937,24.972973 C291.702703,24.5045045 291.468468,24.036036 291.351351,23.6261261 C291.175676,23.2747748 291.117117,22.9234234 291.058559,22.6306306 C291,22.3378378 291,22.1036036 291,21.9864865 L291,21.6936937 C291,21.5765766 291.058559,21.4594595 291.117117,21.2837838 C291.234234,21.1666667 291.292793,21.0495495 291.351351,20.990991 L293.166667,19.1756757 C293.283784,19.0585586 293.459459,19 293.635135,19 C293.752252,19 293.869369,19.0585586 293.927928,19.1171171 C294.045045,19.1171171 294.162162,19.1756757 294.220721,19.2927928 L295.684685,22.1036036 C295.743243,22.2207207 295.801802,22.3963964 295.743243,22.5720721 C295.684685,22.7477477 295.626126,22.9234234 295.509009,23.0405405 L294.806306,23.6846847 C294.806306,23.6846847 294.747748,23.7432432 294.747748,23.8018018 L294.747748,23.9189189 C294.806306,24.0945946 294.864865,24.3288288 295.040541,24.5630631 C295.157658,24.7972973 295.333333,25.0315315 295.567568,25.3828829 C295.801802,25.6756757 296.094595,26.0855856 296.563063,26.4954955 C296.972973,26.9054054 297.324324,27.2567568 297.675676,27.490991 C297.968468,27.7252252 298.261261,27.9009009 298.495495,28.018018 C298.72973,28.1351351 298.846847,28.1936937 298.963964,28.1936937 L299.13964,28.2522523 L299.256757,28.2522523 C299.315315,28.2522523 299.315315,28.1936937 299.373874,28.1936937 L300.135135,27.3738739 C300.310811,27.2567568 300.486486,27.1396396 300.720721,27.1396396 C300.896396,27.1396396 301.013514,27.1396396 301.072072,27.1981982 L301.072072,27.1981982 L303.707207,28.7792793 C303.824324,28.8963964 303.941441,29.0135135 304,29.1891892 L304,29.1891892 Z" id="Shape" sketch:type="MSShapeGroup"></path>
            </g>
        </g>
    </g>
</svg>