<?xml version="1.0" encoding="UTF-8" standalone="no"?>
<svg width="32px" height="29px" viewBox="0 0 32 29" version="1.1" xmlns="http://www.w3.org/2000/svg" xmlns:xlink="http://www.w3.org/1999/xlink" xmlns:sketch="http://www.bohemiancoding.com/sketch/ns">
    <!-- Generator: Sketch 3.3.3 (12072) - http://www.bohemiancoding.com/sketch -->
    <title>Shape Copy</title>
    <desc>Created with Sketch.</desc>
    <defs></defs>
    <g id="Page-1" stroke="none" stroke-width="1" fill="none" fill-rule="evenodd" sketch:type="MSPage">
        <g id="cookie-traffic---not-enabled" sketch:type="MSArtboardGroup" transform="translate(-225.000000, -223.000000)" fill="#FFFFFF">
            <g id="Rectangle-37-+-Anti-Tracking-not-en-+-enable-button-copy-+-Shape-Copy" sketch:type="MSLayerGroup" transform="translate(195.000000, 208.000000)">
                <g id="Anti-Tracking-not-en-+-enable-button-copy-+-Shape-Copy" transform="translate(30.000000, 11.000000)" sketch:type="MSShapeGroup">
                    <path d="M2.50522383,32.888 L29.1756071,32.888 C31.037628,32.888 32.252959,30.9312056 31.4111472,29.3479303 L17.9923318,6.21761672 C17.0557465,4.44479443 14.4522622,4.44479443 13.5156768,6.21761672 L0.269683759,29.3423554 C-0.566553175,31.0259791 0.643202923,32.888 2.50522383,32.888 Z M17.8975583,27.5695331 C17.8975583,28.7792892 16.960973,29.7158746 15.7512169,29.7158746 C14.5414608,29.7158746 13.6048754,28.7792892 13.6048754,27.5695331 L13.6048754,27.4747596 C13.6048754,26.2650035 14.5414608,25.3284181 15.7512169,25.3284181 C16.960973,25.3284181 17.8975583,26.2705784 17.8975583,27.5695331 Z M14.5358858,11.9040279 L17.0557465,11.9040279 C17.7080113,11.9040279 18.176304,12.4670941 18.0815304,13.2085575 L16.960973,22.6301603 C16.8661994,23.2824251 16.3979068,23.7507178 15.7512169,23.7507178 C15.0989521,23.7507178 14.6306594,23.2824251 14.5414608,22.6301603 L13.5156768,13.2085575 C13.4209033,12.4670941 13.883621,11.9040279 14.5358858,11.9040279 Z" id="Shape-Copy"></path>
                </g>
            </g>
        </g>
    </g>
</svg>